/* XPM */
static char *small_arrow_down[] = {
"6 6 2 1",
" 	c None s None",
".	c black s FrameFgndColor",
"      ",
" .....",
"  ... ",
"   .  ",
"      ",
"      "};
