/* XPM */
static char * muted0_xpm[] = {
"21 21 3 1",
" 	c black",
".	c red",
"X	c green",
"       .......       ",
"     ...........     ",
"    ...       ...    ",
"   ..           ..   ",
"  ..         X   ..  ",
" ..         XX    .. ",
" ..        X X    .. ",
"..        X  X     ..",
"..   XXXXX   X     ..",
"..   X   X   X     ..",
"..   X   X   X     ..",
"..   X   X   X     ..",
"..   XXXXX   X     ..",
"..        X  X     ..",
" ..        X X    .. ",
" ..         XX    .. ",
"  ..         X   ..  ",
"   ..           ..   ",
"    ...       ...    ",
"     ...........     ",
"       .......       "};
