/* XPM */
static char *nl_friend[] = {
"14 14 4 1",
" 	s None	c None",
".	c black",
"X	c yellow",
"o	c #808080",
"    .....     ",
"  ..XXXXX..   ",
" .oXXXXXXXo.  ",
" .XX..X..XX.  ",
".XXX..X..XXX. ",
".XXX..X..XXX. ",
".XXXXXXXXXXX. ",
".XXXXXXXXXXX. ",
".XX.XXXXX.XX. ",
" .XX.....XX.  ",
" .oXX...XXo.  ",
"  ..XXXXX..   ",
"    .....     ",
"              "};
